<?xml version="1.0" encoding="utf-8"?>
<!-- Generator: Adobe Illustrator 22.0.1, SVG Export Plug-In . SVG Version: 6.00 Build 0)  -->
<svg version="1.1" id="Layer_1" xmlns="http://www.w3.org/2000/svg" xmlns:xlink="http://www.w3.org/1999/xlink" x="0px" y="0px"
	 viewBox="0 0 293.7 74.5" style="enable-background:new 0 0 293.7 74.5;" xml:space="preserve">
<style type="text/css">
	.st0{fill:#F0305A;}
</style>
<path class="st0" d="M103.6,18.5c-11.3,0-20.4,9.2-20.4,20.4v11.2h7.3V39c0-7.2,5.9-13.1,13.1-13.1c4.7,0,9,2.5,11.4,6.6l0.8,1.3
	l6.3-3.7l-0.8-1.3C117.7,22.4,110.9,18.5,103.6,18.5z"/>
<path class="st0" d="M193.5,18.6c-11.3,0-20.4,9.2-20.4,20.4c0,11.3,9.2,20.4,20.4,20.4c4.9,0,9.5-1.7,13.1-4.8v2.5h7.3V39.1
	C214,27.8,204.8,18.6,193.5,18.6z M206.6,39.1c0,7.2-5.9,13.1-13.1,13.1c-7.2,0-13.1-5.9-13.1-13.1c0-7.2,5.9-13.1,13.1-13.1
	C200.7,26,206.6,31.8,206.6,39.1z"/>
<path class="st0" d="M70.5,23.3c-3.7-3.1-8.3-4.8-13.1-4.8c-11.3,0-20.4,9.2-20.4,20.4c0,11.3,9.2,20.4,20.4,20.4
	c11.3,0,20.4-9.2,20.4-20.4V12.5h-7.3V23.3z M70.5,39c0,7.2-5.9,13.1-13.1,13.1c-7.2,0-13.1-5.9-13.1-13.1c0-7.2,5.9-13.1,13.1-13.1
	C64.6,25.8,70.5,31.7,70.5,39z"/>
<path class="st0" d="M273.3,18.5c-6.8,0-13,3.3-16.8,8.8c-3.8-5.5-10-8.8-16.8-8.8c-11.3,0-20.4,9.2-20.4,20.4v11.2h7.3V39
	c0-7.2,5.9-13.1,13.1-13.1c7.2,0,13.1,5.9,13.1,13.1v1.5h7.3V39c0-7.2,5.9-13.1,13.1-13.1s13.1,5.9,13.1,13.1v11.2h7.3V39
	C293.8,27.7,284.6,18.5,273.3,18.5z"/>
<path class="st0" d="M31.6,20.4C31.6,9.2,22.4,0,11.2,0H0v7.3h11.2c7.2,0,13.1,5.9,13.1,13.1c0,7.2-5.9,13.1-13.1,13.1H9.7v7.3h1.5
	c7.2,0,13.1,5.9,13.1,13.1c0,7.2-5.9,13.1-13.1,13.1H0v7.3h11.2c11.3,0,20.4-9.2,20.4-20.4c0-6.8-3.3-13-8.8-16.8
	C28.3,33.4,31.6,27.2,31.6,20.4z"/>
<path class="st0" d="M147.3,18.5c-11.3,0-20.4,9.2-20.4,20.4c0,11.3,9.2,20.4,20.4,20.4h1.5v-7.3h-1.5c-5.9,0-11-4-12.6-9.5h33.1V39
	C167.7,27.7,158.6,18.5,147.3,18.5z M134.7,35.3c1.6-5.5,6.7-9.5,12.6-9.5c5.9,0,11,4,12.6,9.5H134.7z"/>
</svg>
